# xmcd
#
# Track frame offsets:
#	150
#	17127
#	29965
#	45235
#	60117
#	72985
#	94240
#	108430
#	126017
#	145702
#	162722
#	176960
#
# Disc length: 2574 seconds
#
# Revision: 0
# Processed by: cddbd v1.5.2PL0 Copyright (c) Steve Scherf et al.
# Submitted via: dBpowerAMP V4.0
#
DISCID=a80a0c0c
DTITLE=JD - Together again
DYEAR=1900
DGENRE=Gospel
TTITLE0=Prayer is the Key
TTITLE1=The Master's Hand
TTITLE2=He Touched Me
TTITLE3=Where the Roses Never Fade
TTITLE4=I'll Meet You By the River
TTITLE5=The Grand Homecoming Week
TTITLE6=How Long Has it Been
TTITLE7=It Is No Secret
TTITLE8=Yesterday Today and Forever
TTITLE9=The Farmer and the Lord
TTITLE10=Precious Lord Take My Hand
TTITLE11=Steal Away
EXTD=
EXTT0=
EXTT1=
EXTT2=
EXTT3=
EXTT4=
EXTT5=
EXTT6=
EXTT7=
EXTT8=
EXTT9=
EXTT10=
EXTT11=
PLAYORDER=
